# xmcd
#
# Track frame offsets:
#  150
#  14857
#  24087
#  37670
#  46580
#  61800
#  70360
#  83020
#  95265
#  107720
#
# Disc length: 1575 seconds
#
# Revision: 2
# Processed by: cddbd v1.5.1PL2 Copyright (c) Steve Scherf et al.
# Submitted via: Collectorz.com_Music_Collector 6.11
#
DISCID=6c06250a
DTITLE=Bob Luman - American Originals
DYEAR=1989
DGENRE=Country
TTITLE0=Lonely Women Make Good Lovers
TTITLE1=Everyday I Have To Cry Some
TTITLE2=A Satisfied Mind
TTITLE3=Still Loving You
TTITLE4=Neither One Of Us (Wants To BeThe First To Say Goodby
TTITLE5=Ain't Got Time To Be Unhappy
TTITLE6=It Takes You
TTITLE7=Just Enough To Make Me Stay
TTITLE8=Proud Of You, Baby
TTITLE9=Let's Think About Livin'
EXTD=
EXTT0=
EXTT1=
EXTT2=
EXTT3=
EXTT4=
EXTT5=
EXTT6=
EXTT7=
EXTT8=
EXTT9=
PLAYORDER=
